# xmcd
# 
# Track frame offsets:
#     150
#     14623
#     34241
#     51706
#     73300
#     85228
#     103844
#     123360
#     146624
# 
# Disc length: 2311
# 
# Revision: 1
# Processed by: cddbd v1.5.2PL0 Copyright (c) Steve Scherf et al.
# Submitted via: fre:ac v1.0.31
# 
DISCID=8a090509
DTITLE=John Mayall - Big Man Blues
DYEAR=1980
DGENRE=Blues
TTITLE0=Why Worry
TTITLE1=Road Show
TTITLE2=Mama Talk To Your Daughter
TTITLE3=A Big Man
TTITLE4=Lost And Gone
TTITLE5=John Lee Boogie
TTITLE6=Reaching For A Mountain
TTITLE7=Baby, What You Want Me To Do (Live)
TTITLE8=Mexico City (Live)
EXTD=YEAR: 1980
EXTT0=
EXTT1=
EXTT2=
EXTT3=
EXTT4=
EXTT5=
EXTT6=
EXTT7=
EXTT8=
PLAYORDER=
